# xmcd
#
# Track frame offsets:
#	150
#	21744
#	41239
#	60461
#	80849
#	100965
#	124554
#	144470
#	164747
#	187457
#	217929
#	242798
#	257750
#
# Disc length: 3649 seconds
#
# Revision: 1
# Processed by: cddbd v1.5.2PL0 Copyright (c) Steve Scherf et al.
# Submitted via: EZCDAudioConverter 7.0.6.1
#
DISCID=ca0e3f0d
DTITLE=The 28th Devil
DYEAR=2009
DGENRE=
TTITLE0=Flevans - 27 Devils [Flevans Remix]
TTITLE1=Flevans Feautring Shona Foster - All To Play For [Flevans Remix]
TTITLE2=EZ A Divat - These People [Flevans Remix]
TTITLE3=Azaxx - Ooba Ooba [Flevans Remix]
TTITLE4=Kylie Auldist - One Goodbye [Flevans Remix]
TTITLE5=Flevans - Second Bite
TTITLE6=Flevans Featuring Sarah Scott - Hold On [Hint Remix]
TTITLE7=Flevans Featuring Sarah Scott - Lay Back [Regal Remix]
TTITLE8=Flevans - Endless Things [Lack Of Afro Remix]
TTITLE9=Flevans - Hold No Water [Azaxx Remix]
TTITLE10=Flevans Featuring Sarah Scott - Hold On [PTH Carnival Warm Up Remix]
TTITLE11=Flevans - Second Bite [Hints Party Nibbles Remix]
TTITLE12=Flevans Featuring Sarah Scott - Hold On [Vono Box Remix]
EXTD=
EXTT0=
EXTT1=
EXTT2=
EXTT3=
EXTT4=
EXTT5=
EXTT6=
EXTT7=
EXTT8=
EXTT9=
EXTT10=
EXTT11=
EXTT12=
PLAYORDER=
